<svg id="glipy_copy" viewBox="0 0 64 64" xmlns="http://www.w3.org/2000/svg" xmlns:xlink="http://www.w3.org/1999/xlink" data-name="glipy copy"><linearGradient id="linear-gradient" gradientUnits="userSpaceOnUse" x1="4" x2="60" y1="32" y2="32"><stop offset="0" stop-color="#00c0ff"/><stop offset="1" stop-color="#5558ff"/></linearGradient><path d="m59.96168 25.668-3.35108 11.9537a1.00273 1.00273 0 0 1 -1.69053.42012l-1.58045-1.67051a94.48781 94.48781 0 0 1 -48.355 18.63575 1.00072 1.00072 0 0 1 -.23011-1.97058 94.93772 94.93772 0 0 0 10.23317-3.0209 94.37115 94.37115 0 0 0 14.82462-6.78214 95.04261 95.04261 0 0 0 17.5855-12.834c-.48807-.61-1.63827-1.32255-1.35046-2.12065a.99068.99068 0 0 1 .70023-.70023l12.00371-3.14096a.99257.99257 0 0 1 1.2104 1.23037zm-42.97341 21.46668v-21.13659a1.00326 1.00326 0 0 0 -1.00027-1.00031h-8.00253a1.00326 1.00326 0 0 0 -1.00031 1.00031v24.41758q3.71325-.98862 7.3323-2.28068c.90622-.31425 1.78608-.65994 2.67081-1.00031zm24.00748-13.86437v-23.27721a1.00326 1.00326 0 0 0 -1.00031-1.00031h-8.00244a1.00327 1.00327 0 0 0 -1.00037 1.00031v30.22939c2.32214-1.39826 4.54366-2.86588 6.82214-4.53138 1.07693-.78442 2.13109-1.59311 3.18098-2.4208zm-12.00375 8.13254v-23.40725a1.00327 1.00327 0 0 0 -1.00031-1.00032h-8.00248a1.00327 1.00327 0 0 0 -1.00031 1.00032v28.31881c2.41627-.98279 4.85423-2.15759 7.0722-3.321.9817-.50789 1.9872-1.07209 2.9309-1.59056z" fill="url(#linear-gradient)"/></svg>